<svg 
 xmlns="http://www.w3.org/2000/svg"
 xmlns:xlink="http://www.w3.org/1999/xlink"
 width="96px" height="92px">
<path fill-rule="evenodd"  fill="rgb(17, 188, 21)"
 d="M94.856,10.867 L48.637,57.192 C47.877,57.951 46.888,58.330 45.895,58.330 C44.902,58.330 43.911,57.951 43.152,57.192 L30.547,44.559 C29.031,43.041 29.031,40.580 30.547,39.062 C32.062,37.544 34.516,37.544 36.029,39.062 L45.895,48.949 L89.374,5.371 C90.887,3.854 93.341,3.854 94.856,5.371 C96.370,6.889 96.370,9.351 94.856,10.867 ZM61.418,11.080 C56.506,8.888 51.293,7.773 45.915,7.771 C45.909,7.771 45.904,7.771 45.892,7.771 C35.713,7.771 26.141,11.741 18.939,18.951 C11.731,26.167 7.759,35.765 7.752,45.975 C7.741,67.055 24.841,84.212 45.873,84.224 C45.881,84.224 45.886,84.224 45.895,84.224 C56.074,84.224 65.647,80.254 72.848,73.044 C80.057,65.827 84.029,56.230 84.036,46.020 L84.036,42.106 C84.036,39.959 85.772,38.218 87.913,38.218 C90.055,38.218 91.789,39.959 91.789,42.106 L91.789,46.021 C91.783,58.311 87.002,69.859 78.329,78.543 C69.662,87.220 58.143,91.998 45.895,91.998 C45.884,91.998 45.879,91.998 45.867,91.998 C33.609,91.991 22.085,87.200 13.423,78.506 C4.757,69.813 -0.009,58.258 -0.002,45.971 C0.004,33.684 4.785,22.136 13.458,13.452 C22.125,4.776 33.645,-0.003 45.892,-0.003 C45.904,-0.003 45.911,-0.003 45.920,-0.003 C52.391,0.001 58.666,1.341 64.573,3.979 C66.530,4.854 67.409,7.152 66.538,9.112 C65.666,11.072 63.376,11.954 61.418,11.080 Z"/>
</svg>