<svg 
 xmlns="http://www.w3.org/2000/svg"
 xmlns:xlink="http://www.w3.org/1999/xlink"
 width="16px" height="18px">
<path fill-rule="evenodd"  fill="rgb(255, 255, 255)"
 d="M15.915,15.560 C15.843,15.676 15.710,15.749 15.568,15.749 L0.397,15.749 C0.254,15.749 0.122,15.676 0.050,15.559 C-0.020,15.441 -0.018,15.297 0.057,15.181 L1.427,13.034 C2.058,12.043 2.393,10.910 2.393,9.754 L2.393,7.874 C2.393,5.500 4.080,3.493 6.386,2.845 L6.386,1.499 C6.386,0.671 7.101,-0.001 7.982,-0.001 C8.863,-0.001 9.580,0.671 9.580,1.499 L9.580,2.845 C11.887,3.493 13.570,5.500 13.570,7.874 L13.570,9.754 C13.570,10.910 13.906,12.044 14.538,13.035 L15.910,15.182 C15.983,15.297 15.986,15.442 15.915,15.560 ZM7.982,17.999 C6.872,17.999 5.918,17.382 5.468,16.499 L10.496,16.499 C10.047,17.382 9.093,17.999 7.982,17.999 Z"/>
</svg>